<?xml version="1.0" standalone="no"?>
<!DOCTYPE svg PUBLIC "-//W3C//DTD SVG 20010904//EN"
 "http://www.w3.org/TR/2001/REC-SVG-20010904/DTD/svg10.dtd">
<svg version="1.0" xmlns="http://www.w3.org/2000/svg"
 width="1280.000000pt" height="1180.000000pt" viewBox="0 0 1280.000000 1180.000000"
 preserveAspectRatio="xMidYMid meet">
<g transform="translate(0.000000,1180.000000) scale(0.100000,-0.100000)"
fill="#aaaaaa" stroke="none">
<path d="M4010 11789 c-1105 -89 -2068 -514 -2819 -1244 -510 -496 -874 -1099
-1052 -1745 -252 -915 -157 -1844 276 -2694 272 -533 690 -1023 1198 -1405
638 -478 1381 -767 2232 -868 116 -13 227 -17 490 -17 363 0 485 9 788 60 691
117 1380 410 1930 823 305 229 627 548 843 836 503 669 774 1465 774 2270 0
880 -324 1742 -918 2448 -664 788 -1636 1325 -2702 1491 -290 46 -776 67
-1040 45z m737 -1180 c259 -32 496 -90 738 -180 148 -54 424 -191 563 -278
354 -221 671 -523 892 -851 276 -409 424 -838 461 -1335 23 -312 -26 -684
-132 -997 -296 -870 -1034 -1564 -1969 -1851 -849 -260 -1784 -165 -2544 260
-755 422 -1282 1120 -1440 1905 -41 206 -50 303 -50 523 0 220 9 317 50 523
142 708 584 1344 1234 1777 475 316 1027 495 1635 529 121 7 414 -6 562 -25z"/>
<path d="M8496 5040 c-244 -346 -653 -735 -1051 -1000 -82 -55 -158 -106 -168
-113 -16 -11 212 -223 2054 -1922 1139 -1051 2095 -1931 2124 -1957 l52 -47
647 596 c514 474 644 599 634 608 -148 136 -1759 1620 -2830 2608 -775 713
-1409 1297 -1410 1297 -2 -1 -25 -32 -52 -70z"/>
</g>
</svg>
